<svg data-name="Layer 1" xmlns="http://www.w3.org/2000/svg" width="768" height="728.858" viewBox="0 0 768 728.85799"><path d="M466.884 172.947h-3.999V63.402A63.402 63.402 0 0 0 399.483 0H167.397a63.402 63.402 0 0 0-63.402 63.402v600.974a63.402 63.402 0 0 0 63.401 63.402h232.087a63.402 63.402 0 0 0 63.402-63.402V250.923h3.999z" fill="#e6e6e6"/><path d="M402.041 16.495h-30.295a22.495 22.495 0 0 1-20.827 30.99H217.96a22.495 22.495 0 0 1-20.826-30.99h-28.296a47.348 47.348 0 0 0-47.348 47.348v600.092a47.348 47.348 0 0 0 47.348 47.348h233.204a47.348 47.348 0 0 0 47.348-47.348V63.843a47.348 47.348 0 0 0-47.348-47.348z" fill="#fff"/><path d="M767 728.858H1a1 1 0 0 1 0-2h766a1 1 0 0 1 0 2zM426.82 182.504H143.946a5.245 5.245 0 0 1-5.238-5.239v-70.169a5.245 5.245 0 0 1 5.238-5.238H426.82a5.245 5.245 0 0 1 5.239 5.238v70.17a5.245 5.245 0 0 1-5.239 5.238zm-282.874-78.55a3.146 3.146 0 0 0-3.143 3.142v70.17a3.146 3.146 0 0 0 3.143 3.142H426.82a3.146 3.146 0 0 0 3.143-3.143v-70.169a3.146 3.146 0 0 0-3.143-3.143zM426.82 460.139H143.946a5.245 5.245 0 0 1-5.238-5.239V325.014a5.245 5.245 0 0 1 5.238-5.239H426.82a5.245 5.245 0 0 1 5.239 5.239V454.9a5.245 5.245 0 0 1-5.239 5.239zM143.946 321.87a3.146 3.146 0 0 0-3.143 3.143V454.9a3.146 3.146 0 0 0 3.143 3.144H426.82a3.146 3.146 0 0 0 3.143-3.144V325.014a3.146 3.146 0 0 0-3.143-3.143z" fill="#3f3d56"/><path d="M424.725 291.462H299.003a5.245 5.245 0 0 1-5.239-5.238v-70.169a5.245 5.245 0 0 1 5.239-5.238h125.722a5.245 5.245 0 0 1 5.238 5.238v70.17a5.245 5.245 0 0 1-5.238 5.237zm-125.722-78.55a3.146 3.146 0 0 0-3.143 3.143v70.169a3.146 3.146 0 0 0 3.143 3.143h125.722a3.146 3.146 0 0 0 3.143-3.143v-70.169a3.146 3.146 0 0 0-3.143-3.143zm-29.335 416.951H143.946a5.245 5.245 0 0 1-5.238-5.239V493.69a5.245 5.245 0 0 1 5.238-5.238h125.722a5.245 5.245 0 0 1 5.239 5.238v130.935a5.245 5.245 0 0 1-5.239 5.238zM143.946 490.547a3.146 3.146 0 0 0-3.143 3.143v130.935a3.146 3.146 0 0 0 3.143 3.143h125.722a3.146 3.146 0 0 0 3.143-3.143V493.69a3.146 3.146 0 0 0-3.143-3.143zm280.779 139.316H299.003a5.245 5.245 0 0 1-5.239-5.239V493.69a5.245 5.245 0 0 1 5.239-5.238h125.722a5.245 5.245 0 0 1 5.238 5.238v130.935a5.245 5.245 0 0 1-5.238 5.238zM299.003 490.547a3.146 3.146 0 0 0-3.143 3.143v130.935a3.146 3.146 0 0 0 3.143 3.143h125.722a3.146 3.146 0 0 0 3.143-3.143V493.69a3.146 3.146 0 0 0-3.143-3.143z" fill="#e6e6e6"/><circle cx="185.804" cy="365.787" r="21.338" fill="#6c63ff"/><path d="M235.085 351.562a3.556 3.556 0 0 0 0 7.112h167.66a3.556 3.556 0 0 0 0-7.112zm0 21.338a3.556 3.556 0 0 0-.015 7.113h72.16a3.556 3.556 0 1 0 0-7.113z" fill="#6c63ff"/><path d="M169.437 407.014c-2.706 0-4.907 1.596-4.907 3.557s2.201 3.556 4.907 3.556h231.318c2.705 0 4.907-1.596 4.907-3.556s-2.202-3.557-4.907-3.557zm0 21.339c-2.706 0-4.907 1.595-4.907 3.556s2.201 3.556 4.907 3.556h231.318c2.705 0 4.907-1.595 4.907-3.556s-2.202-3.556-4.907-3.556z" fill="#ccc"/><circle cx="187.899" cy="139.488" r="21.338" fill="#6c63ff"/><path d="M237.18 125.263a3.556 3.556 0 0 0 0 7.113h167.66a3.556 3.556 0 1 0 .015-7.113h-.015zm0 21.338a3.556 3.556 0 0 0 0 7.113h72.145a3.556 3.556 0 1 0 .015-7.113h-.015z" fill="#6c63ff"/><path d="M269.557 291.475H151.619l27.755-48.073a5.668 5.668 0 0 1 9.816 0l11.857 20.536 20.16-34.918a7.096 7.096 0 0 1 12.29 0zm-114.31-2.095h110.681l-34.245-59.313a5 5 0 0 0-8.66 0l-21.976 38.061-13.671-23.679a3.572 3.572 0 0 0-6.187 0zm265.176 2.095H302.485l27.754-48.073a5.668 5.668 0 0 1 9.817 0l11.857 20.536 20.16-34.918a7.096 7.096 0 0 1 12.29 0zm-114.31-2.095h110.68l-34.244-59.313a5 5 0 0 0-8.66 0l-21.976 38.061-13.672-23.679a3.572 3.572 0 0 0-6.186 0z" fill="#e6e6e6"/><path d="M269.668 291.462H143.946a5.245 5.245 0 0 1-5.238-5.238v-70.169a5.245 5.245 0 0 1 5.238-5.238h125.722a5.245 5.245 0 0 1 5.239 5.238v70.17a5.245 5.245 0 0 1-5.239 5.237zm-125.722-78.55a3.146 3.146 0 0 0-3.143 3.143v70.169a3.146 3.146 0 0 0 3.143 3.143h125.722a3.146 3.146 0 0 0 3.143-3.143v-70.169a3.146 3.146 0 0 0-3.143-3.143zm26.789 302.541a3.556 3.556 0 1 0 0 7.113h72.144a3.556 3.556 0 0 0 0-7.113zm0 20.953a3.556 3.556 0 1 0 0 7.113h72.144a3.556 3.556 0 0 0 0-7.113zm36.072 66.456a22.386 22.386 0 1 1 22.386-22.386 22.411 22.411 0 0 1-22.386 22.386zm0-42.677a20.29 20.29 0 1 0 20.291 20.29 20.314 20.314 0 0 0-20.29-20.29zm191.129 42.677a3.556 3.556 0 1 0 0-7.113h-72.144a3.556 3.556 0 0 0 0 7.113zm0-20.954a3.556 3.556 0 1 0 0-7.113h-72.144a3.556 3.556 0 0 0 0 7.113zm-36.072-66.455a22.386 22.386 0 1 1-22.386 22.386 22.411 22.411 0 0 1 22.386-22.386zm0 42.676a20.29 20.29 0 1 0-20.291-20.29 20.314 20.314 0 0 0 20.29 20.29z" fill="#e6e6e6"/><path fill="#ffb8b8" d="M589.987 713.726H573.8l-7.7-62.434 23.89.001-.003 62.433z"/><path d="M557.47 709.1h35.985v19.656h-50.872v-4.769a14.887 14.887 0 0 1 14.887-14.886z" fill="#2f2e41"/><path fill="#ffb8b8" d="M654.681 713.726h-16.186l-7.701-62.434 23.89.001-.003 62.433z"/><path d="M622.165 709.1h35.985v19.656h-50.872v-4.769a14.887 14.887 0 0 1 14.887-14.886z" fill="#2f2e41"/><path d="M561.786 533.743a12.38 12.38 0 0 0-1.067-18.954l6.935-27.428-15.64-8.28-9.25 38.872a12.447 12.447 0 0 0 19.022 15.79z" fill="#ffb8b8"/><path fill="#2f2e41" d="M660.438 485.836l-1.32 92.421-1.321 121.467-29.046-2.641-14.523-167.677-18.484 167.677h-29.988l-3.02-168.997 10.563-36.969 87.139-5.281z"/><path d="M570.403 491.681l-.425-.191 16.554-113.228-8.415-34.223a7.49 7.49 0 0 1 4.641-8.799l15.142-5.677 5.35-14.712 42.206 4.548 1.038 11.498c4.574 1.467 42.237 14.01 39.638 28.302-2.565 14.107-17.709 58.488-18.478 60.738l-2.652 63.649-.326.163c-.393.196-29.485 14.5-61.089 14.498-11.13 0-22.577-1.776-33.184-6.566z" fill="#3f3d56"/><path d="M542.217 503.566l13.307-85.161c.079-.502 7.952-50.355 10.563-66.02 2.696-16.173 15.215-16.36 15.342-16.36h6.89l8.058 36.265-15.876 72.763-14.647 60.298z" fill="#3f3d56"/><path d="M628.529 495.161a12.38 12.38 0 0 1 15.115-11.485l16.372-23.073 16.448 6.53-23.578 32.258a12.447 12.447 0 0 1-24.357-4.23z" fill="#ffb8b8"/><path d="M646.489 475.319l29.109-48.957-11.86-31.626 16.153-43.074.595.256c.39.167 9.569 4.263 10.929 18.93l18.562 58.336-49.54 64.267z" fill="#3f3d56"/><circle cx="838.699" cy="362.753" r="30.389" transform="rotate(-61.337 658.55 502.09)" fill="#ffb8b8"/><path d="M602.296 262.38c3.146 3.723 8.47 4.774 13.38 5.204 9.974.875 24.477-.544 34.224-2.794.695 6.742-1.202 14.012 2.77 19.559a90.798 90.798 0 0 0 3.226-20.584c.12-2.986.073-6.075-1.14-8.816s-3.86-5.068-6.907-5.092a17.311 17.311 0 0 1 7.721-3.301l-9.649-4.85 2.478-2.543-17.469-1.07 5.06-3.214a109.715 109.715 0 0 0-22.986-.725c-3.56.262-7.282.763-10.166 2.826s-4.551 6.162-2.76 9.19a13.344 13.344 0 0 0-10.17 8.069c-1.286 3.26-1.168 6.88-.772 10.355a73.399 73.399 0 0 0 3.849 16.28" fill="#2f2e41"/></svg>